<svg width="102" height="37" viewBox="0 0 102 37" fill="none" xmlns="http://www.w3.org/2000/svg">
<path d="M16.0675 20.5063L25.9613 14.0572M72.7416 20.5063L50.9108 6.22198M50.9108 6.22198L44.4583 2L31.0157 10.7625M50.9108 6.22198L57.5467 2L71.7396 11.2532L85.9325 20.5063M25.9613 14.0572V5.65823H31.0157V10.7625M25.9613 14.0572L31.0157 10.7625" stroke="#CBAD79" stroke-width="2"/>
<path d="M0 30.4513V25.3062H1.18438V29.4811H3.75053V30.4513H0Z" fill="white"/>
<path d="M5.97717 30.5101C5.65062 30.5101 5.35818 30.4464 5.09986 30.319C4.84641 30.1916 4.64901 29.998 4.50767 29.7383C4.36632 29.4737 4.29565 29.1381 4.29565 28.7314V26.4969H5.43616V28.5623C5.43616 28.8906 5.5044 29.1332 5.64087 29.29C5.78221 29.4419 5.97961 29.5178 6.23306 29.5178C6.40852 29.5178 6.56449 29.4811 6.70096 29.4076C6.83743 29.3292 6.94466 29.2116 7.02264 29.0548C7.10063 28.8931 7.13962 28.6922 7.13962 28.4521V26.4969H8.28013V30.4513H7.1981V29.3635L7.3955 29.6795C7.2639 29.9539 7.06894 30.1622 6.81062 30.3043C6.55718 30.4415 6.27936 30.5101 5.97717 30.5101Z" fill="white"/>
<path d="M9.33673 30.4513V26.4969H10.4772V30.4513H9.33673ZM9.90699 25.9457C9.69741 25.9457 9.52682 25.8844 9.39522 25.7619C9.26362 25.6394 9.19783 25.4875 9.19783 25.3062C9.19783 25.1249 9.26362 24.973 9.39522 24.8505C9.52682 24.728 9.69741 24.6667 9.90699 24.6667C10.1166 24.6667 10.2872 24.7255 10.4188 24.8432C10.5504 24.9559 10.6162 25.1029 10.6162 25.2842C10.6162 25.4753 10.5504 25.6345 10.4188 25.7619C10.292 25.8844 10.1214 25.9457 9.90699 25.9457Z" fill="white"/>
<path d="M11.2652 30.4513V29.7604L13.5901 26.9967L13.7875 27.3789H11.3164V26.4969H14.7087V27.1878L12.3838 29.9515L12.1791 29.5693H14.7745V30.4513H11.2652Z" fill="white"/>
<path d="M17.918 30.4513V29.6795L17.8449 29.5105V28.1286C17.8449 27.8836 17.7693 27.6925 17.6182 27.5553C17.472 27.4181 17.2454 27.3495 16.9383 27.3495C16.7287 27.3495 16.5216 27.3838 16.3169 27.4524C16.117 27.5161 15.9465 27.6043 15.8051 27.717L15.3957 26.9159C15.6102 26.764 15.8685 26.6464 16.1707 26.5631C16.4728 26.4798 16.7799 26.4381 17.0918 26.4381C17.6913 26.4381 18.1568 26.5802 18.4882 26.8644C18.8197 27.1486 18.9854 27.5921 18.9854 28.1948V30.4513H17.918ZM16.719 30.5101C16.4119 30.5101 16.1487 30.4586 15.9294 30.3557C15.7101 30.2479 15.5419 30.1034 15.4249 29.9221C15.308 29.7408 15.2495 29.5374 15.2495 29.312C15.2495 29.0768 15.3055 28.871 15.4176 28.6946C15.5346 28.5182 15.7174 28.381 15.966 28.283C16.2145 28.1801 16.5386 28.1286 16.9383 28.1286H17.9838V28.7975H17.0626C16.7945 28.7975 16.6093 28.8416 16.507 28.9298C16.4095 29.018 16.3607 29.1283 16.3607 29.2606C16.3607 29.4076 16.4168 29.5252 16.5289 29.6134C16.6459 29.6967 16.8043 29.7383 17.0041 29.7383C17.1942 29.7383 17.3648 29.6942 17.5159 29.606C17.667 29.5129 17.7766 29.3782 17.8449 29.2018L18.0203 29.731C17.9375 29.9858 17.7864 30.1793 17.5671 30.3116C17.3477 30.4439 17.065 30.5101 16.719 30.5101Z" fill="white"/>
<path d="M24.6396 30.5395C24.2351 30.5395 23.8622 30.4758 23.521 30.3484C23.1847 30.2161 22.8899 30.0299 22.6364 29.7898C22.3878 29.5497 22.1929 29.2679 22.0515 28.9445C21.9151 28.6211 21.8468 28.2659 21.8468 27.8787C21.8468 27.4916 21.9151 27.1364 22.0515 26.813C22.1929 26.4896 22.3903 26.2078 22.6437 25.9677C22.8972 25.7276 23.1945 25.5439 23.5357 25.4165C23.8768 25.2842 24.2521 25.218 24.6616 25.218C25.1148 25.218 25.5218 25.294 25.8825 25.4459C26.248 25.5978 26.5551 25.8183 26.8037 26.1074L26.0433 26.813C25.8581 26.617 25.6558 26.4724 25.4365 26.3793C25.2172 26.2813 24.9784 26.2323 24.72 26.2323C24.4715 26.2323 24.2448 26.2715 24.0401 26.3499C23.8354 26.4283 23.6575 26.541 23.5064 26.688C23.3602 26.835 23.2457 27.009 23.1628 27.2099C23.0848 27.4108 23.0458 27.6337 23.0458 27.8787C23.0458 28.1188 23.0848 28.3394 23.1628 28.5403C23.2457 28.7412 23.3602 28.9176 23.5064 29.0695C23.6575 29.2165 23.833 29.3292 24.0328 29.4076C24.2375 29.486 24.4617 29.5252 24.7054 29.5252C24.9394 29.5252 25.166 29.4884 25.3853 29.4149C25.6095 29.3365 25.8264 29.2067 26.036 29.0254L26.7086 29.8853C26.4308 30.096 26.1067 30.2577 25.7363 30.3704C25.3707 30.4831 25.0052 30.5395 24.6396 30.5395ZM25.6266 29.731V27.7979H26.7086V29.8853L25.6266 29.731Z" fill="white"/>
<path d="M29.6804 30.5101C29.232 30.5101 28.8372 30.4219 28.496 30.2455C28.1597 30.0691 27.899 29.829 27.7138 29.5252C27.5286 29.2165 27.436 28.8661 27.436 28.4741C27.436 28.0772 27.5261 27.7268 27.7065 27.423C27.8917 27.1143 28.1427 26.8742 28.4595 26.7027C28.7763 26.5263 29.1345 26.4381 29.5342 26.4381C29.9192 26.4381 30.2653 26.5214 30.5724 26.688C30.8843 26.8497 31.1304 27.0849 31.3108 27.3936C31.4911 27.6974 31.5813 28.0625 31.5813 28.4888C31.5813 28.5329 31.5788 28.5844 31.574 28.6432C31.5691 28.6971 31.5642 28.7485 31.5593 28.7975H28.3644V28.1286H30.9598L30.5212 28.3271C30.5212 28.1213 30.4798 27.9424 30.3969 27.7905C30.314 27.6386 30.1995 27.521 30.0533 27.4377C29.9071 27.3495 29.7365 27.3054 29.5415 27.3054C29.3465 27.3054 29.1735 27.3495 29.0224 27.4377C28.8762 27.521 28.7617 27.6411 28.6788 27.7979C28.596 27.9498 28.5545 28.1311 28.5545 28.3418V28.5182C28.5545 28.7338 28.6008 28.9249 28.6934 29.0915C28.7909 29.2532 28.9249 29.3782 29.0955 29.4664C29.271 29.5497 29.4757 29.5913 29.7097 29.5913C29.9192 29.5913 30.102 29.5595 30.258 29.4958C30.4188 29.4321 30.565 29.3365 30.6966 29.2091L31.3035 29.8706C31.1231 30.0764 30.8965 30.2357 30.6235 30.3484C30.3506 30.4562 30.0362 30.5101 29.6804 30.5101Z" fill="white"/>
<path d="M34.7313 26.4381C35.0432 26.4381 35.321 26.5018 35.5647 26.6292C35.8133 26.7517 36.0083 26.9428 36.1496 27.2025C36.2909 27.4573 36.3616 27.7856 36.3616 28.1874V30.4513H35.2211V28.3639C35.2211 28.0453 35.1504 27.8101 35.0091 27.6582C34.8726 27.5063 34.6777 27.4304 34.4242 27.4304C34.2439 27.4304 34.0806 27.4696 33.9344 27.548C33.793 27.6215 33.6809 27.7366 33.5981 27.8934C33.5201 28.0502 33.4811 28.2512 33.4811 28.4962V30.4513H32.3406V26.4969H33.4299V27.5921L33.2252 27.2613C33.3666 26.9967 33.5688 26.7934 33.832 26.6513C34.0952 26.5092 34.395 26.4381 34.7313 26.4381Z" fill="white"/>
<path d="M39.0038 30.5101C38.5408 30.5101 38.1801 30.3925 37.9218 30.1573C37.6635 29.9172 37.5343 29.5619 37.5343 29.0915V25.6223H38.6748V29.0768C38.6748 29.2434 38.7187 29.3733 38.8064 29.4664C38.8942 29.5546 39.0136 29.5987 39.1647 29.5987C39.345 29.5987 39.4986 29.5497 39.6253 29.4517L39.9323 30.2602C39.8154 30.3435 39.674 30.4072 39.5083 30.4513C39.3475 30.4905 39.1793 30.5101 39.0038 30.5101ZM36.9275 27.4671V26.5851H39.6545V27.4671H36.9275Z" fill="white"/>
<path d="M40.5726 30.4513V26.4969H41.7131V30.4513H40.5726ZM41.1428 25.9457C40.9332 25.9457 40.7626 25.8844 40.631 25.7619C40.4995 25.6394 40.4337 25.4875 40.4337 25.3062C40.4337 25.1249 40.4995 24.973 40.631 24.8505C40.7626 24.728 40.9332 24.6667 41.1428 24.6667C41.3524 24.6667 41.523 24.7255 41.6546 24.8432C41.7862 24.9559 41.852 25.1029 41.852 25.2842C41.852 25.4753 41.7862 25.6345 41.6546 25.7619C41.5279 25.8844 41.3573 25.9457 41.1428 25.9457Z" fill="white"/>
<path d="M42.7716 30.4513V24.9975H43.9121V30.4513H42.7716Z" fill="white"/>
<path d="M48.7299 30.5395C48.3546 30.5395 48.0207 30.4782 47.7283 30.3557C47.4358 30.2332 47.2043 30.0666 47.0337 29.8559C46.8632 29.6452 46.7779 29.4027 46.7779 29.1283C46.7779 28.8735 46.8339 28.6456 46.946 28.4447C47.0581 28.2389 47.236 28.0478 47.4797 27.8714C47.7234 27.6901 48.0329 27.5137 48.4082 27.3422C48.6811 27.2148 48.8956 27.1021 49.0516 27.0041C49.2075 26.9061 49.3172 26.813 49.3806 26.7248C49.4439 26.6317 49.4756 26.5386 49.4756 26.4455C49.4756 26.3181 49.4317 26.2152 49.344 26.1368C49.2612 26.0584 49.1369 26.0192 48.9711 26.0192C48.7957 26.0192 48.6592 26.0633 48.5617 26.1515C48.4643 26.2397 48.4155 26.3524 48.4155 26.4896C48.4155 26.5631 48.4301 26.6366 48.4594 26.7101C48.4886 26.7787 48.5447 26.8595 48.6275 26.9526C48.7104 27.0408 48.8274 27.156 48.9785 27.2981L51.6762 29.8118L51.0548 30.5395L48.0792 27.7611C47.9086 27.6043 47.7721 27.4573 47.6698 27.3201C47.5674 27.1829 47.4919 27.0482 47.4432 26.9159C47.3993 26.7836 47.3774 26.6464 47.3774 26.5043C47.3774 26.2544 47.4432 26.0339 47.5748 25.8428C47.7064 25.6517 47.8916 25.5047 48.1304 25.4018C48.3692 25.294 48.6495 25.2401 48.9711 25.2401C49.2685 25.2401 49.5243 25.2891 49.7388 25.3871C49.9581 25.4802 50.1287 25.6149 50.2506 25.7913C50.3773 25.9677 50.4407 26.1784 50.4407 26.4234C50.4407 26.639 50.387 26.8375 50.2798 27.0188C50.1726 27.1952 50.0044 27.3618 49.7754 27.5186C49.5512 27.6754 49.2563 27.8346 48.8907 27.9963C48.6422 28.109 48.4448 28.2193 48.2985 28.3271C48.1572 28.43 48.0548 28.5354 47.9915 28.6432C47.9281 28.751 47.8964 28.871 47.8964 29.0033C47.8964 29.1258 47.933 29.2361 48.0061 29.3341C48.0841 29.4321 48.1913 29.508 48.3278 29.5619C48.4643 29.6158 48.6251 29.6428 48.8103 29.6428C49.1076 29.6428 49.3806 29.5742 49.6291 29.437C49.8777 29.2949 50.0873 29.0866 50.2579 28.8122C50.4333 28.5329 50.5576 28.1948 50.6307 27.7979L51.5446 28.0845C51.4423 28.5844 51.2595 29.018 50.9963 29.3855C50.7331 29.753 50.409 30.0372 50.0239 30.2381C49.6389 30.439 49.2075 30.5395 48.7299 30.5395Z" fill="white"/>
<path d="M55.6003 27.3789H58.0641V28.3051H55.6003V27.3789ZM55.688 29.4958H58.4735V30.4513H54.511V25.3062H58.3785V26.2617H55.688V29.4958Z" fill="white"/>
<path d="M61.0029 30.5101C60.6325 30.5101 60.2986 30.4268 60.0013 30.2602C59.704 30.0887 59.4676 29.851 59.2921 29.5472C59.1215 29.2434 59.0362 28.8857 59.0362 28.4741C59.0362 28.0576 59.1215 27.6974 59.2921 27.3936C59.4676 27.0898 59.704 26.8546 60.0013 26.688C60.2986 26.5214 60.6325 26.4381 61.0029 26.4381C61.3343 26.4381 61.6243 26.5116 61.8729 26.6586C62.1215 26.8056 62.314 27.0286 62.4505 27.3275C62.5869 27.6264 62.6552 28.0086 62.6552 28.4741C62.6552 28.9347 62.5894 29.3169 62.4578 29.6207C62.3262 29.9196 62.1361 30.1426 61.8875 30.2896C61.6438 30.4366 61.3489 30.5101 61.0029 30.5101ZM61.2003 29.5693C61.3855 29.5693 61.5537 29.5252 61.7047 29.437C61.8558 29.3488 61.9752 29.2238 62.063 29.0621C62.1556 28.8955 62.2019 28.6995 62.2019 28.4741C62.2019 28.2438 62.1556 28.0478 62.063 27.8861C61.9752 27.7244 61.8558 27.5994 61.7047 27.5112C61.5537 27.423 61.3855 27.3789 61.2003 27.3789C61.0102 27.3789 60.8396 27.423 60.6885 27.5112C60.5374 27.5994 60.4156 27.7244 60.323 27.8861C60.2352 28.0478 60.1914 28.2438 60.1914 28.4741C60.1914 28.6995 60.2352 28.8955 60.323 29.0621C60.4156 29.2238 60.5374 29.3488 60.6885 29.437C60.8396 29.5252 61.0102 29.5693 61.2003 29.5693ZM62.2311 30.4513V29.6428L62.2531 28.4668L62.18 27.2981V24.9975H63.3205V30.4513H62.2311Z" fill="white"/>
<path d="M65.6993 30.5101C65.363 30.5101 65.0389 30.4709 64.727 30.3925C64.4199 30.3092 64.1762 30.2063 63.9959 30.0838L64.376 29.2606C64.5564 29.3733 64.7684 29.4664 65.0121 29.5399C65.2607 29.6085 65.5044 29.6428 65.7432 29.6428C66.0064 29.6428 66.1916 29.6109 66.2988 29.5472C66.4109 29.4835 66.467 29.3953 66.467 29.2826C66.467 29.1895 66.4231 29.1209 66.3354 29.0768C66.2525 29.0278 66.1404 28.9911 65.9991 28.9666C65.8577 28.9421 65.7018 28.9176 65.5312 28.8931C65.3655 28.8686 65.1973 28.8367 65.0267 28.7975C64.8561 28.7534 64.7002 28.6897 64.5588 28.6064C64.4175 28.5231 64.3029 28.4104 64.2152 28.2683C64.1323 28.1262 64.0909 27.9424 64.0909 27.717C64.0909 27.4671 64.1616 27.2466 64.3029 27.0555C64.4492 26.8644 64.6587 26.715 64.9317 26.6072C65.2046 26.4945 65.5312 26.4381 65.9113 26.4381C66.1794 26.4381 66.4524 26.4675 66.7302 26.5263C67.008 26.5851 67.2395 26.6709 67.4247 26.7836L67.0445 27.5994C66.8545 27.4867 66.6619 27.4108 66.467 27.3716C66.2769 27.3275 66.0917 27.3054 65.9113 27.3054C65.6579 27.3054 65.4727 27.3397 65.3557 27.4083C65.2387 27.4769 65.1802 27.5651 65.1802 27.6729C65.1802 27.7709 65.2217 27.8444 65.3045 27.8934C65.3923 27.9424 65.5068 27.9816 65.6482 28.011C65.7895 28.0404 65.943 28.0674 66.1087 28.0919C66.2793 28.1115 66.4499 28.1433 66.6205 28.1874C66.7911 28.2316 66.9446 28.2953 67.0811 28.3786C67.2225 28.457 67.337 28.5672 67.4247 28.7093C67.5124 28.8465 67.5563 29.0278 67.5563 29.2532C67.5563 29.4982 67.4832 29.7163 67.337 29.9074C67.1908 30.0936 66.9787 30.2406 66.7009 30.3484C66.428 30.4562 66.0941 30.5101 65.6993 30.5101Z" fill="white"/>
<path d="M70.1316 30.5101C69.7124 30.5101 69.3396 30.4219 69.013 30.2455C68.6913 30.0691 68.4355 29.829 68.2454 29.5252C68.0602 29.2165 67.9676 28.8661 67.9676 28.4741C67.9676 28.0772 68.0602 27.7268 68.2454 27.423C68.4355 27.1143 68.6913 26.8742 69.013 26.7027C69.3396 26.5263 69.7124 26.4381 70.1316 26.4381C70.5459 26.4381 70.9163 26.5263 71.2429 26.7027C71.5694 26.8742 71.8253 27.1119 72.0105 27.4157C72.1957 27.7195 72.2883 28.0723 72.2883 28.4741C72.2883 28.8661 72.1957 29.2165 72.0105 29.5252C71.8253 29.829 71.5694 30.0691 71.2429 30.2455C70.9163 30.4219 70.5459 30.5101 70.1316 30.5101ZM70.1316 29.5693C70.3217 29.5693 70.4923 29.5252 70.6434 29.437C70.7945 29.3488 70.9139 29.2238 71.0016 29.0621C71.0893 28.8955 71.1332 28.6995 71.1332 28.4741C71.1332 28.2438 71.0893 28.0478 71.0016 27.8861C70.9139 27.7244 70.7945 27.5994 70.6434 27.5112C70.4923 27.423 70.3217 27.3789 70.1316 27.3789C69.9415 27.3789 69.7709 27.423 69.6198 27.5112C69.4687 27.5994 69.3469 27.7244 69.2543 27.8861C69.1666 28.0478 69.1227 28.2438 69.1227 28.4741C69.1227 28.6995 69.1666 28.8955 69.2543 29.0621C69.3469 29.2238 69.4687 29.3488 69.6198 29.437C69.7709 29.5252 69.9415 29.5693 70.1316 29.5693Z" fill="white"/>
<path d="M75.4414 26.4381C75.7533 26.4381 76.0311 26.5018 76.2748 26.6292C76.5234 26.7517 76.7183 26.9428 76.8597 27.2025C77.001 27.4573 77.0717 27.7856 77.0717 28.1874V30.4513H75.9312V28.3639C75.9312 28.0453 75.8605 27.8101 75.7192 27.6582C75.5827 27.5063 75.3877 27.4304 75.1343 27.4304C74.954 27.4304 74.7907 27.4696 74.6445 27.548C74.5031 27.6215 74.391 27.7366 74.3082 27.8934C74.2302 28.0502 74.1912 28.2512 74.1912 28.4962V30.4513H73.0507V26.4969H74.14V27.5921L73.9353 27.2613C74.0767 26.9967 74.2789 26.7934 74.5421 26.6513C74.8053 26.5092 75.1051 26.4381 75.4414 26.4381Z" fill="white"/>
<path d="M82.7275 30.5395C82.323 30.5395 81.9501 30.4758 81.609 30.3484C81.2727 30.2161 80.9778 30.0299 80.7243 29.7898C80.4758 29.5497 80.2808 29.2679 80.1395 28.9445C80.003 28.6211 79.9348 28.2659 79.9348 27.8787C79.9348 27.4916 80.003 27.1364 80.1395 26.813C80.2808 26.4896 80.4782 26.2078 80.7317 25.9677C80.9851 25.7276 81.2824 25.5439 81.6236 25.4165C81.9648 25.2842 82.3401 25.218 82.7495 25.218C83.2028 25.218 83.6097 25.294 83.9704 25.4459C84.336 25.5978 84.643 25.8183 84.8916 26.1074L84.1313 26.813C83.946 26.617 83.7438 26.4724 83.5244 26.3793C83.3051 26.2813 83.0663 26.2323 82.808 26.2323C82.5594 26.2323 82.3328 26.2715 82.128 26.3499C81.9233 26.4283 81.7454 26.541 81.5943 26.688C81.4481 26.835 81.3336 27.009 81.2507 27.2099C81.1727 27.4108 81.1338 27.6337 81.1338 27.8787C81.1338 28.1188 81.1727 28.3394 81.2507 28.5403C81.3336 28.7412 81.4481 28.9176 81.5943 29.0695C81.7454 29.2165 81.9209 29.3292 82.1207 29.4076C82.3254 29.486 82.5496 29.5252 82.7933 29.5252C83.0273 29.5252 83.2539 29.4884 83.4733 29.4149C83.6975 29.3365 83.9144 29.2067 84.1239 29.0254L84.7965 29.8853C84.5187 30.096 84.1946 30.2577 83.8242 30.3704C83.4586 30.4831 83.0931 30.5395 82.7275 30.5395ZM83.7145 29.731V27.7979H84.7965V29.8853L83.7145 29.731Z" fill="white"/>
<path d="M87.7683 30.5101C87.3199 30.5101 86.9251 30.4219 86.584 30.2455C86.2477 30.0691 85.9869 29.829 85.8017 29.5252C85.6165 29.2165 85.5239 28.8661 85.5239 28.4741C85.5239 28.0772 85.614 27.7268 85.7944 27.423C85.9796 27.1143 86.2306 26.8742 86.5474 26.7027C86.8642 26.5263 87.2225 26.4381 87.6221 26.4381C88.0072 26.4381 88.3532 26.5214 88.6603 26.688C88.9722 26.8497 89.2184 27.0849 89.3987 27.3936C89.579 27.6974 89.6692 28.0625 89.6692 28.4888C89.6692 28.5329 89.6668 28.5844 89.6619 28.6432C89.657 28.6971 89.6521 28.7485 89.6473 28.7975H86.4524V28.1286H89.0478L88.6091 28.3271C88.6091 28.1213 88.5677 27.9424 88.4848 27.7905C88.402 27.6386 88.2874 27.521 88.1412 27.4377C87.995 27.3495 87.8244 27.3054 87.6294 27.3054C87.4345 27.3054 87.2615 27.3495 87.1104 27.4377C86.9641 27.521 86.8496 27.6411 86.7667 27.7979C86.6839 27.9498 86.6425 28.1311 86.6425 28.3418V28.5182C86.6425 28.7338 86.6888 28.9249 86.7814 29.0915C86.8788 29.2532 87.0129 29.3782 87.1835 29.4664C87.3589 29.5497 87.5636 29.5913 87.7976 29.5913C88.0072 29.5913 88.1899 29.5595 88.3459 29.4958C88.5067 29.4321 88.653 29.3365 88.7846 29.2091L89.3914 29.8706C89.211 30.0764 88.9844 30.2357 88.7115 30.3484C88.4385 30.4562 88.1241 30.5101 87.7683 30.5101Z" fill="white"/>
<path d="M92.8192 26.4381C93.1311 26.4381 93.4089 26.5018 93.6526 26.6292C93.9012 26.7517 94.0962 26.9428 94.2375 27.2025C94.3789 27.4573 94.4495 27.7856 94.4495 28.1874V30.4513H93.309V28.3639C93.309 28.0453 93.2384 27.8101 93.097 27.6582C92.9605 27.5063 92.7656 27.4304 92.5121 27.4304C92.3318 27.4304 92.1685 27.4696 92.0223 27.548C91.881 27.6215 91.7689 27.7366 91.686 27.8934C91.608 28.0502 91.569 28.2512 91.569 28.4962V30.4513H90.4285V26.4969H91.5178V27.5921L91.3131 27.2613C91.4545 26.9967 91.6567 26.7934 91.9199 26.6513C92.1831 26.5092 92.4829 26.4381 92.8192 26.4381Z" fill="white"/>
<path d="M97.0918 30.5101C96.6287 30.5101 96.2681 30.3925 96.0097 30.1573C95.7514 29.9172 95.6223 29.5619 95.6223 29.0915V25.6223H96.7628V29.0768C96.7628 29.2434 96.8066 29.3733 96.8944 29.4664C96.9821 29.5546 97.1015 29.5987 97.2526 29.5987C97.4329 29.5987 97.5865 29.5497 97.7132 29.4517L98.0203 30.2602C97.9033 30.3435 97.7619 30.4072 97.5962 30.4513C97.4354 30.4905 97.2672 30.5101 97.0918 30.5101ZM95.0155 27.4671V26.5851H97.7424V27.4671H95.0155Z" fill="white"/>
<path d="M98.6605 30.4513V26.4969H99.801V30.4513H98.6605ZM99.2307 25.9457C99.0212 25.9457 98.8506 25.8844 98.719 25.7619C98.5874 25.6394 98.5216 25.4875 98.5216 25.3062C98.5216 25.1249 98.5874 24.973 98.719 24.8505C98.8506 24.728 99.0212 24.6667 99.2307 24.6667C99.4403 24.6667 99.6109 24.7255 99.7425 24.8432C99.8741 24.9559 99.9399 25.1029 99.9399 25.2842C99.9399 25.4753 99.8741 25.6345 99.7425 25.7619C99.6158 25.8844 99.4452 25.9457 99.2307 25.9457Z" fill="white"/>
<path d="M100.859 30.4513V24.9975H102V30.4513H100.859Z" fill="white"/>
<path d="M20.5723 36.5739C20.2604 36.5739 19.9699 36.523 19.7009 36.421C19.4357 36.3152 19.2037 36.1682 19.0049 35.98C18.8099 35.7879 18.6578 35.5625 18.5487 35.3038C18.4395 35.0451 18.3849 34.7629 18.3849 34.4571C18.3849 34.1513 18.4395 33.8691 18.5487 33.6104C18.6578 33.3516 18.8119 33.1282 19.0107 32.94C19.2096 32.7479 19.4416 32.6009 19.7067 32.499C19.9719 32.3932 20.2623 32.3403 20.5782 32.3403C20.9135 32.3403 21.2196 32.3991 21.4964 32.5167C21.7733 32.6303 22.0072 32.8009 22.1983 33.0282L21.707 33.4928C21.5588 33.332 21.3931 33.2125 21.2098 33.1341C21.0266 33.0518 20.8277 33.0106 20.6133 33.0106C20.3988 33.0106 20.2019 33.0459 20.0225 33.1164C19.8471 33.187 19.6931 33.287 19.5605 33.4163C19.4318 33.5457 19.3304 33.6986 19.2564 33.875C19.1862 34.0514 19.1511 34.2454 19.1511 34.4571C19.1511 34.6688 19.1862 34.8628 19.2564 35.0392C19.3304 35.2156 19.4318 35.3685 19.5605 35.4979C19.6931 35.6272 19.8471 35.7272 20.0225 35.7978C20.2019 35.8683 20.3988 35.9036 20.6133 35.9036C20.8277 35.9036 21.0266 35.8644 21.2098 35.786C21.3931 35.7037 21.5588 35.5802 21.707 35.4155L22.1983 35.886C22.0072 36.1094 21.7733 36.2799 21.4964 36.3975C21.2196 36.5151 20.9116 36.5739 20.5723 36.5739Z" fill="#CBAD79"/>
<path d="M24.1404 36.5563C23.8207 36.5563 23.536 36.4877 23.2865 36.3505C23.0369 36.2094 22.84 36.0173 22.6958 35.7742C22.5515 35.5312 22.4794 35.2548 22.4794 34.9451C22.4794 34.6315 22.5515 34.3552 22.6958 34.116C22.84 33.873 23.0369 33.6829 23.2865 33.5457C23.536 33.4085 23.8207 33.3399 24.1404 33.3399C24.464 33.3399 24.7506 33.4085 25.0002 33.5457C25.2536 33.6829 25.4505 33.871 25.5909 34.1102C25.7352 34.3493 25.8073 34.6276 25.8073 34.9451C25.8073 35.2548 25.7352 35.5312 25.5909 35.7742C25.4505 36.0173 25.2536 36.2094 25.0002 36.3505C24.7506 36.4877 24.464 36.5563 24.1404 36.5563ZM24.1404 35.9271C24.3198 35.9271 24.4796 35.8879 24.62 35.8095C24.7604 35.7311 24.8696 35.6174 24.9475 35.4685C25.0294 35.3195 25.0704 35.1451 25.0704 34.9451C25.0704 34.7413 25.0294 34.5669 24.9475 34.4218C24.8696 34.2728 24.7604 34.1592 24.62 34.0808C24.4796 34.0024 24.3217 33.9632 24.1463 33.9632C23.9669 33.9632 23.807 34.0024 23.6667 34.0808C23.5302 34.1592 23.421 34.2728 23.3391 34.4218C23.2572 34.5669 23.2163 34.7413 23.2163 34.9451C23.2163 35.1451 23.2572 35.3195 23.3391 35.4685C23.421 35.6174 23.5302 35.7311 23.6667 35.8095C23.807 35.8879 23.9649 35.9271 24.1404 35.9271Z" fill="#CBAD79"/>
<path d="M26.5064 36.5151V33.3752H27.2024V34.2395L27.1205 33.9867C27.2141 33.775 27.3603 33.6143 27.5592 33.5045C27.762 33.3948 28.0135 33.3399 28.3137 33.3399V34.0396C28.2825 34.0318 28.2533 34.0278 28.226 34.0278C28.1987 34.0239 28.1714 34.022 28.1441 34.022C27.8672 34.022 27.6469 34.1043 27.4832 34.2689C27.3194 34.4297 27.2375 34.6707 27.2375 34.9922V36.5151H26.5064Z" fill="#CBAD79"/>
<path d="M28.9339 36.5151V33.3752H29.6299V34.2395L29.548 33.9867C29.6416 33.775 29.7878 33.6143 29.9867 33.5045C30.1894 33.3948 30.4409 33.3399 30.7412 33.3399V34.0396C30.71 34.0318 30.6807 34.0278 30.6534 34.0278C30.6261 34.0239 30.5988 34.022 30.5715 34.022C30.2947 34.022 30.0744 34.1043 29.9106 34.2689C29.7469 34.4297 29.665 34.6707 29.665 34.9922V36.5151H28.9339Z" fill="#CBAD79"/>
<path d="M32.8008 36.5563C32.4538 36.5563 32.1497 36.4877 31.8884 36.3505C31.6311 36.2094 31.4303 36.0173 31.286 35.7742C31.1456 35.5312 31.0755 35.2548 31.0755 34.9451C31.0755 34.6315 31.1437 34.3552 31.2802 34.116C31.4205 33.873 31.6116 33.6829 31.8533 33.5457C32.099 33.4085 32.3778 33.3399 32.6897 33.3399C32.9938 33.3399 33.2648 33.4065 33.5027 33.5398C33.7405 33.6731 33.9277 33.8612 34.0642 34.1043C34.2006 34.3473 34.2689 34.6335 34.2689 34.9628C34.2689 34.9941 34.2669 35.0294 34.263 35.0686C34.263 35.1078 34.2611 35.1451 34.2572 35.1803H31.6545V34.6923H33.8712L33.5846 34.8452C33.5885 34.6649 33.5514 34.5061 33.4735 34.3689C33.3955 34.2317 33.2882 34.1239 33.1518 34.0455C33.0192 33.9671 32.8652 33.9279 32.6897 33.9279C32.5104 33.9279 32.3524 33.9671 32.216 34.0455C32.0834 34.1239 31.9781 34.2336 31.9001 34.3748C31.826 34.512 31.789 34.6747 31.789 34.8628V34.9804C31.789 35.1686 31.8319 35.3352 31.9177 35.4802C32.0035 35.6253 32.1243 35.737 32.2803 35.8154C32.4363 35.8938 32.6156 35.933 32.8184 35.933C32.9939 35.933 33.1518 35.9056 33.2921 35.8507C33.4325 35.7958 33.5573 35.7095 33.6665 35.5919L34.0583 36.0447C33.918 36.2094 33.7405 36.3368 33.5261 36.4269C33.3155 36.5132 33.0738 36.5563 32.8008 36.5563Z" fill="#CBAD79"/>
<path d="M36.1468 36.5563C35.8036 36.5563 35.5385 36.4681 35.3513 36.2917C35.1642 36.1114 35.0706 35.8468 35.0706 35.4979V32.6813H35.8017V35.4802C35.8017 35.6292 35.8387 35.7448 35.9128 35.8272C35.9908 35.9095 36.098 35.9506 36.2345 35.9506C36.3982 35.9506 36.5347 35.9075 36.6439 35.8213L36.8486 36.3446C36.7628 36.4152 36.6575 36.4681 36.5328 36.5034C36.408 36.5386 36.2793 36.5563 36.1468 36.5563ZM34.5559 33.9867V33.3987H36.638V33.9867H34.5559Z" fill="#CBAD79"/>
<path d="M38.7509 36.5563C38.4312 36.5563 38.1465 36.4877 37.897 36.3505C37.6474 36.2094 37.4505 36.0173 37.3063 35.7742C37.162 35.5312 37.0899 35.2548 37.0899 34.9451C37.0899 34.6315 37.162 34.3552 37.3063 34.116C37.4505 33.873 37.6474 33.6829 37.897 33.5457C38.1465 33.4085 38.4312 33.3399 38.7509 33.3399C39.0745 33.3399 39.3611 33.4085 39.6107 33.5457C39.8641 33.6829 40.061 33.871 40.2014 34.1102C40.3457 34.3493 40.4178 34.6276 40.4178 34.9451C40.4178 35.2548 40.3457 35.5312 40.2014 35.7742C40.061 36.0173 39.8641 36.2094 39.6107 36.3505C39.3611 36.4877 39.0745 36.5563 38.7509 36.5563ZM38.7509 35.9271C38.9303 35.9271 39.0901 35.8879 39.2305 35.8095C39.3709 35.7311 39.4801 35.6174 39.558 35.4685C39.6399 35.3195 39.6809 35.1451 39.6809 34.9451C39.6809 34.7413 39.6399 34.5669 39.558 34.4218C39.4801 34.2728 39.3709 34.1592 39.2305 34.0808C39.0901 34.0024 38.9322 33.9632 38.7568 33.9632C38.5774 33.9632 38.4175 34.0024 38.2772 34.0808C38.1407 34.1592 38.0315 34.2728 37.9496 34.4218C37.8678 34.5669 37.8268 34.7413 37.8268 34.9451C37.8268 35.1451 37.8678 35.3195 37.9496 35.4685C38.0315 35.6174 38.1407 35.7311 38.2772 35.8095C38.4175 35.8879 38.5755 35.9271 38.7509 35.9271Z" fill="#CBAD79"/>
<path d="M41.1169 36.5151V33.3752H41.8129V34.2395L41.7311 33.9867C41.8246 33.775 41.9709 33.6143 42.1697 33.5045C42.3725 33.3948 42.624 33.3399 42.9242 33.3399V34.0396C42.893 34.0318 42.8638 34.0278 42.8365 34.0278C42.8092 34.0239 42.7819 34.022 42.7546 34.022C42.4777 34.022 42.2574 34.1043 42.0937 34.2689C41.9299 34.4297 41.848 34.6707 41.848 34.9922V36.5151H41.1169Z" fill="#CBAD79"/>
<path d="M44.9839 36.5563C44.6369 36.5563 44.3327 36.4877 44.0715 36.3505C43.8141 36.2094 43.6133 36.0173 43.4691 35.7742C43.3287 35.5312 43.2585 35.2548 43.2585 34.9451C43.2585 34.6315 43.3267 34.3552 43.4632 34.116C43.6036 33.873 43.7946 33.6829 44.0364 33.5457C44.282 33.4085 44.5608 33.3399 44.8728 33.3399C45.1769 33.3399 45.4479 33.4065 45.6857 33.5398C45.9236 33.6731 46.1107 33.8612 46.2472 34.1043C46.3837 34.3473 46.4519 34.6335 46.4519 34.9628C46.4519 34.9941 46.45 35.0294 46.4461 35.0686C46.4461 35.1078 46.4441 35.1451 46.4402 35.1803H43.8375V34.6923H46.0542L45.7676 34.8452C45.7715 34.6649 45.7345 34.5061 45.6565 34.3689C45.5785 34.2317 45.4713 34.1239 45.3348 34.0455C45.2022 33.9671 45.0482 33.9279 44.8728 33.9279C44.6934 33.9279 44.5355 33.9671 44.399 34.0455C44.2664 34.1239 44.1612 34.2336 44.0832 34.3748C44.0091 34.512 43.972 34.6747 43.972 34.8628V34.9804C43.972 35.1686 44.0149 35.3352 44.1007 35.4802C44.1865 35.6253 44.3074 35.737 44.4633 35.8154C44.6193 35.8938 44.7987 35.933 45.0014 35.933C45.1769 35.933 45.3348 35.9056 45.4752 35.8507C45.6156 35.7958 45.7403 35.7095 45.8495 35.5919L46.2414 36.0447C46.101 36.2094 45.9236 36.3368 45.7091 36.4269C45.4986 36.5132 45.2568 36.5563 44.9839 36.5563Z" fill="#CBAD79"/>
<path d="M48.1192 36.5563C47.858 36.5563 47.6065 36.523 47.3647 36.4563C47.1269 36.3858 46.9378 36.3015 46.7974 36.2035L47.0782 35.6449C47.2185 35.735 47.3862 35.8095 47.5812 35.8683C47.7761 35.9271 47.9711 35.9565 48.166 35.9565C48.3961 35.9565 48.5618 35.9252 48.6632 35.8624C48.7685 35.7997 48.8211 35.7154 48.8211 35.6096C48.8211 35.5233 48.786 35.4587 48.7158 35.4155C48.6456 35.3685 48.554 35.3332 48.4409 35.3097C48.3278 35.2862 48.2011 35.2646 48.0608 35.245C47.9243 35.2254 47.7859 35.1999 47.6455 35.1686C47.509 35.1333 47.3842 35.0843 47.2712 35.0216C47.1581 34.9549 47.0665 34.8667 46.9963 34.757C46.9261 34.6472 46.891 34.5022 46.891 34.3218C46.891 34.1219 46.9475 33.9494 47.0606 33.8044C47.1737 33.6554 47.3316 33.5418 47.5344 33.4634C47.741 33.381 47.9847 33.3399 48.2655 33.3399C48.476 33.3399 48.6885 33.3634 48.903 33.4104C49.1174 33.4575 49.2948 33.5241 49.4352 33.6104L49.1545 34.169C49.0063 34.0788 48.8562 34.018 48.7041 33.9867C48.5559 33.9514 48.4078 33.9338 48.2596 33.9338C48.0374 33.9338 47.8716 33.9671 47.7625 34.0337C47.6572 34.1004 47.6045 34.1846 47.6045 34.2866C47.6045 34.3806 47.6396 34.4512 47.7098 34.4983C47.78 34.5453 47.8716 34.5825 47.9847 34.61C48.0978 34.6374 48.2226 34.6609 48.359 34.6805C48.4994 34.6962 48.6378 34.7217 48.7743 34.757C48.9108 34.7923 49.0355 34.8413 49.1486 34.904C49.2656 34.9628 49.3592 35.0471 49.4294 35.1568C49.4996 35.2666 49.5346 35.4097 49.5346 35.5861C49.5346 35.7821 49.4762 35.9526 49.3592 36.0976C49.2461 36.2427 49.0843 36.3564 48.8737 36.4387C48.6632 36.5171 48.4117 36.5563 48.1192 36.5563Z" fill="#CBAD79"/>
<path d="M53.1025 36.5563C52.8023 36.5563 52.5313 36.4896 52.2895 36.3564C52.0517 36.2192 51.8645 36.031 51.728 35.7919C51.5916 35.5527 51.5233 35.2705 51.5233 34.9451C51.5233 34.6198 51.5916 34.3375 51.728 34.0984C51.8645 33.8593 52.0517 33.6731 52.2895 33.5398C52.5313 33.4065 52.8023 33.3399 53.1025 33.3399C53.3637 33.3399 53.5977 33.3987 53.8043 33.5163C54.011 33.63 54.1748 33.8044 54.2956 34.0396C54.4165 34.2748 54.4769 34.5767 54.4769 34.9451C54.4769 35.3097 54.4185 35.6115 54.3015 35.8507C54.1845 36.0859 54.0227 36.2623 53.816 36.3799C53.6094 36.4975 53.3715 36.5563 53.1025 36.5563ZM53.1902 35.9271C53.3657 35.9271 53.5216 35.8879 53.6581 35.8095C53.7985 35.7311 53.9096 35.6174 53.9915 35.4685C54.0773 35.3195 54.1202 35.1451 54.1202 34.9451C54.1202 34.7413 54.0773 34.5669 53.9915 34.4218C53.9096 34.2728 53.7985 34.1592 53.6581 34.0808C53.5216 34.0024 53.3657 33.9632 53.1902 33.9632C53.0148 33.9632 52.8568 34.0024 52.7165 34.0808C52.58 34.1592 52.4689 34.2728 52.3831 34.4218C52.3012 34.5669 52.2603 34.7413 52.2603 34.9451C52.2603 35.1451 52.3012 35.3195 52.3831 35.4685C52.4689 35.6174 52.58 35.7311 52.7165 35.8095C52.8568 35.8879 53.0148 35.9271 53.1902 35.9271ZM54.1377 36.5151V35.7742L54.167 34.9393L54.1085 34.1043V32.1521H54.8337V36.5151H54.1377Z" fill="#CBAD79"/>
<path d="M57.264 36.5563C56.917 36.5563 56.6129 36.4877 56.3516 36.3505C56.0943 36.2094 55.8935 36.0173 55.7492 35.7742C55.6088 35.5312 55.5386 35.2548 55.5386 34.9451C55.5386 34.6315 55.6069 34.3552 55.7433 34.116C55.8837 33.873 56.0748 33.6829 56.3165 33.5457C56.5622 33.4085 56.841 33.3399 57.1529 33.3399C57.457 33.3399 57.728 33.4065 57.9659 33.5398C58.2037 33.6731 58.3909 33.8612 58.5274 34.1043C58.6638 34.3473 58.7321 34.6335 58.7321 34.9628C58.7321 34.9941 58.7301 35.0294 58.7262 35.0686C58.7262 35.1078 58.7243 35.1451 58.7204 35.1803H56.1177V34.6923H58.3343L58.0478 34.8452C58.0517 34.6649 58.0146 34.5061 57.9366 34.3689C57.8586 34.2317 57.7514 34.1239 57.615 34.0455C57.4824 33.9671 57.3284 33.9279 57.1529 33.9279C56.9735 33.9279 56.8156 33.9671 56.6791 34.0455C56.5466 34.1239 56.4413 34.2336 56.3633 34.3748C56.2892 34.512 56.2522 34.6747 56.2522 34.8628V34.9804C56.2522 35.1686 56.2951 35.3352 56.3809 35.4802C56.4666 35.6253 56.5875 35.737 56.7435 35.8154C56.8995 35.8938 57.0788 35.933 57.2816 35.933C57.457 35.933 57.6149 35.9056 57.7553 35.8507C57.8957 35.7958 58.0205 35.7095 58.1296 35.5919L58.5215 36.0447C58.3811 36.2094 58.2037 36.3368 57.9893 36.4269C57.7787 36.5132 57.537 36.5563 57.264 36.5563Z" fill="#CBAD79"/>
<path d="M61.1209 36.5151V32.3991H61.8813V36.5151H61.1209Z" fill="#CBAD79"/>
<path d="M66.8605 33.3399C67.1101 33.3399 67.3304 33.3889 67.5215 33.4869C67.7164 33.5849 67.8685 33.7358 67.9777 33.9396C68.0868 34.1396 68.1414 34.3983 68.1414 34.7158V36.5151H67.4103V34.8099C67.4103 34.5316 67.3499 34.3238 67.229 34.1866C67.1081 34.0494 66.9346 33.9808 66.7085 33.9808C66.5486 33.9808 66.4063 34.0161 66.2815 34.0866C66.1606 34.1572 66.0651 34.2611 65.9949 34.3983C65.9286 34.5355 65.8955 34.7099 65.8955 34.9216V36.5151H65.1644V34.8099C65.1644 34.5316 65.104 34.3238 64.9831 34.1866C64.8622 34.0494 64.6887 33.9808 64.4625 33.9808C64.3027 33.9808 64.1604 34.0161 64.0356 34.0866C63.9147 34.1572 63.8192 34.2611 63.749 34.3983C63.6827 34.5355 63.6496 34.7099 63.6496 34.9216V36.5151H62.9185V33.3752H63.6145V34.2101L63.4916 33.9632C63.5969 33.7593 63.749 33.6045 63.9479 33.4986C64.1506 33.3928 64.3807 33.3399 64.638 33.3399C64.9304 33.3399 65.1839 33.4124 65.3983 33.5574C65.6167 33.7025 65.761 33.922 65.8312 34.216L65.5446 34.116C65.6459 33.8808 65.8136 33.6927 66.0476 33.5516C66.2815 33.4104 66.5525 33.3399 66.8605 33.3399Z" fill="#CBAD79"/>
<path d="M70.4851 36.5563C70.1654 36.5563 69.8807 36.4877 69.6312 36.3505C69.3816 36.2094 69.1847 36.0173 69.0404 35.7742C68.8962 35.5312 68.824 35.2548 68.824 34.9451C68.824 34.6315 68.8962 34.3552 69.0404 34.116C69.1847 33.873 69.3816 33.6829 69.6312 33.5457C69.8807 33.4085 70.1654 33.3399 70.4851 33.3399C70.8087 33.3399 71.0953 33.4085 71.3449 33.5457C71.5983 33.6829 71.7952 33.871 71.9356 34.1102C72.0799 34.3493 72.152 34.6276 72.152 34.9451C72.152 35.2548 72.0799 35.5312 71.9356 35.7742C71.7952 36.0173 71.5983 36.2094 71.3449 36.3505C71.0953 36.4877 70.8087 36.5563 70.4851 36.5563ZM70.4851 35.9271C70.6645 35.9271 70.8243 35.8879 70.9647 35.8095C71.1051 35.7311 71.2142 35.6174 71.2922 35.4685C71.3741 35.3195 71.415 35.1451 71.415 34.9451C71.415 34.7413 71.3741 34.5669 71.2922 34.4218C71.2142 34.2728 71.1051 34.1592 70.9647 34.0808C70.8243 34.0024 70.6664 33.9632 70.4909 33.9632C70.3116 33.9632 70.1517 34.0024 70.0113 34.0808C69.8749 34.1592 69.7657 34.2728 69.6838 34.4218C69.6019 34.5669 69.561 34.7413 69.561 34.9451C69.561 35.1451 69.6019 35.3195 69.6838 35.4685C69.7657 35.6174 69.8749 35.7311 70.0113 35.8095C70.1517 35.8879 70.3096 35.9271 70.4851 35.9271ZM69.9879 32.9459L70.7775 32.1403H71.6373L70.6196 32.9459H69.9879Z" fill="#CBAD79"/>
<path d="M73.5959 36.5151L72.2566 33.3752H73.0169L74.1691 36.1447H73.7948L74.988 33.3752H75.6898L74.3504 36.5151H73.5959Z" fill="#CBAD79"/>
<path d="M77.5291 36.5563C77.1821 36.5563 76.878 36.4877 76.6167 36.3505C76.3594 36.2094 76.1586 36.0173 76.0143 35.7742C75.8739 35.5312 75.8037 35.2548 75.8037 34.9451C75.8037 34.6315 75.872 34.3552 76.0084 34.116C76.1488 33.873 76.3399 33.6829 76.5816 33.5457C76.8273 33.4085 77.1061 33.3399 77.418 33.3399C77.7221 33.3399 77.9931 33.4065 78.231 33.5398C78.4688 33.6731 78.656 33.8612 78.7924 34.1043C78.9289 34.3473 78.9972 34.6335 78.9972 34.9628C78.9972 34.9941 78.9952 35.0294 78.9913 35.0686C78.9913 35.1078 78.9894 35.1451 78.9855 35.1803H76.3828V34.6923H78.5994L78.3128 34.8452C78.3167 34.6649 78.2797 34.5061 78.2017 34.3689C78.1237 34.2317 78.0165 34.1239 77.88 34.0455C77.7475 33.9671 77.5935 33.9279 77.418 33.9279C77.2386 33.9279 77.0807 33.9671 76.9442 34.0455C76.8117 34.1239 76.7064 34.2336 76.6284 34.3748C76.5543 34.512 76.5173 34.6747 76.5173 34.8628V34.9804C76.5173 35.1686 76.5602 35.3352 76.6459 35.4802C76.7317 35.6253 76.8526 35.737 77.0086 35.8154C77.1645 35.8938 77.3439 35.933 77.5467 35.933C77.7221 35.933 77.88 35.9056 78.0204 35.8507C78.1608 35.7958 78.2856 35.7095 78.3947 35.5919L78.7866 36.0447C78.6462 36.2094 78.4688 36.3368 78.2544 36.4269C78.0438 36.5132 77.8021 36.5563 77.5291 36.5563Z" fill="#CBAD79"/>
<path d="M79.6994 36.5151V33.3752H80.4305V36.5151H79.6994ZM80.0679 32.8577C79.9314 32.8577 79.8183 32.8146 79.7287 32.7283C79.6429 32.6421 79.6 32.5382 79.6 32.4167C79.6 32.2913 79.6429 32.1874 79.7287 32.1051C79.8183 32.0188 79.9314 31.9757 80.0679 31.9757C80.2044 31.9757 80.3155 32.0169 80.4013 32.0992C80.491 32.1776 80.5358 32.2775 80.5358 32.3991C80.5358 32.5284 80.4929 32.6382 80.4071 32.7283C80.3213 32.8146 80.2083 32.8577 80.0679 32.8577Z" fill="#CBAD79"/>
<path d="M82.3551 36.5563C82.0939 36.5563 81.8424 36.523 81.6006 36.4563C81.3628 36.3858 81.1737 36.3015 81.0333 36.2035L81.314 35.6449C81.4544 35.735 81.6221 35.8095 81.817 35.8683C82.012 35.9271 82.207 35.9565 82.4019 35.9565C82.632 35.9565 82.7977 35.9252 82.8991 35.8624C83.0043 35.7997 83.057 35.7154 83.057 35.6096C83.057 35.5233 83.0219 35.4587 82.9517 35.4155C82.8815 35.3685 82.7899 35.3332 82.6768 35.3097C82.5637 35.2862 82.437 35.2646 82.2966 35.245C82.1602 35.2254 82.0218 35.1999 81.8814 35.1686C81.7449 35.1333 81.6201 35.0843 81.5071 35.0216C81.394 34.9549 81.3024 34.8667 81.2322 34.757C81.162 34.6472 81.1269 34.5022 81.1269 34.3218C81.1269 34.1219 81.1834 33.9494 81.2965 33.8044C81.4096 33.6554 81.5675 33.5418 81.7703 33.4634C81.9769 33.381 82.2206 33.3399 82.5014 33.3399C82.7119 33.3399 82.9244 33.3634 83.1389 33.4104C83.3533 33.4575 83.5307 33.5241 83.6711 33.6104L83.3904 34.169C83.2422 34.0788 83.0921 34.018 82.94 33.9867C82.7918 33.9514 82.6437 33.9338 82.4955 33.9338C82.2732 33.9338 82.1075 33.9671 81.9984 34.0337C81.8931 34.1004 81.8404 34.1846 81.8404 34.2866C81.8404 34.3806 81.8755 34.4512 81.9457 34.4983C82.0159 34.5453 82.1075 34.5825 82.2206 34.61C82.3337 34.6374 82.4585 34.6609 82.5949 34.6805C82.7353 34.6962 82.8737 34.7217 83.0102 34.757C83.1467 34.7923 83.2714 34.8413 83.3845 34.904C83.5015 34.9628 83.5951 35.0471 83.6653 35.1568C83.7354 35.2666 83.7705 35.4097 83.7705 35.5861C83.7705 35.7821 83.712 35.9526 83.5951 36.0976C83.482 36.2427 83.3202 36.3564 83.1096 36.4387C82.8991 36.5171 82.6476 36.5563 82.3551 36.5563Z" fill="#CBAD79"/>
</svg>
